<?xml version="1.0" encoding="utf-8"?>
<svg version="1.1" id="Layer_1" xmlns="http://www.w3.org/2000/svg" xmlns:xlink="http://www.w3.org/1999/xlink" x="0px" y="0px"
	 viewBox="0 0 261 26" style="enable-background:new 0 0 261 26;" xml:space="preserve">
<style type="text/css">
	.st0{fill:#EE3426;}
	.st1{fill:#FFFFFF;}
</style>
<g id="Group_30" transform="translate(81 66)">
	<g id="Logo_2_">
		<path id="Path_18" class="st0" d="M-70.1-40h7.8v-16h-7.8V-40z M-81-64v22c0,1.1,0.9,2,2,2c0,0,0,0,0,0h5.9v-18.7h3v0h7.8V-66H-79
			C-80.1-66-81-65.1-81-64C-81-64-81-64-81-64z M-51.7-66h-7.7v26h7.7c1.1,0,2-0.9,2-2c0,0,0,0,0,0v-22C-49.7-65.1-50.6-66-51.7-66
			C-51.7-66-51.7-66-51.7-66z"/>
	</g>
	<g id="Megawide_2_" transform="translate(42.177)">
		<path id="Path_19" class="st1" d="M2-48c0,1.1,0.2,3.1-3.6,3.1h-6.4c-3.7,0-3.6-2-3.6-3.1v-9.8c0-1.3-0.1-3.2,3.3-3.2H6.3v-4.6
			h-16.9c-4.4,0-7,3.1-7,5v15.4c0,1.6,2.5,4.8,7.4,4.8H0.7c5,0,7.4-3.2,7.4-4.8v-9.7l-6.1,0L2-48z M-43.2-60.5v15.4
			c0,1.6,2.5,4.8,7.4,4.8h16v-4.6h-13.8c-3.7,0-3.6-2-3.6-3.1v-2.8h16.5v-4.6h-16.5v-2.5c0-1.3-0.1-3.2,3.3-3.2h14.1v-4.6h-16.4
			C-40.6-65.6-43.2-62.5-43.2-60.5z M105.6-65.6H86.5v25.2h18.7c5,0,7.4-3.2,7.4-4.8v-15.4C112.6-62.5,110-65.6,105.6-65.6z
			 M103-44.9H92.5V-61h10.8c3.3,0,3.3,1.9,3.3,3.2v9.8C106.6-46.9,106.7-44.9,103-44.9L103-44.9z M77.9-40.2H84v-25.4h-6.2V-40.2z
			 M28.7-63.2c-0.8-1.7-2.5-2.7-4.4-2.6c-2-0.1-3.8,1.1-4.5,2.9L8.1-40.4h6.7l2.8-5.9h13.2l3,5.8h6.5L28.7-63.2L28.7-63.2z
			 M19.7-50.6l4.3-9.1l4.6,9.1H19.7z M123.7-61h14.1v-4.6h-16.4c-4.4,0-7,3.1-7,5v15.4c0,1.6,2.5,4.8,7.4,4.8h16v-4.6H124
			c-3.7,0-3.6-2-3.6-3.1v-2.8h16.5v-4.6h-16.5v-2.5C120.4-59.1,120.4-61,123.7-61z M64.2-47.8l-4.4-14.9c0-0.1-0.1-0.2-0.1-0.3l0,0
			l0,0c-0.7-1.8-2.4-3-4.3-3c-2.3,0-4.2,1.6-4.5,3.9l-4.2,14.5l-5.7-18h-6l7.1,23h0c0.3,1.5,2.1,2.6,4.4,2.6c2.4,0,4.3-1.3,4.4-2.9
			l4.3-15.3L59.9-43c0.1,1.7,2,3,4.4,3c2,0,3.7-0.9,4.2-2.2h0l7.4-23.5h-6L64.2-47.8z M-45.1-61.5c0-0.5,0-1-0.1-1.5
			c-0.4-1.7-2.3-2.8-4.7-2.8c-1.9-0.1-3.7,0.9-4.6,2.6L-63-47.4l-8.5-15.8c-0.9-1.7-2.7-2.7-4.6-2.6c-2.4,0-4.3,1.1-4.7,2.8
			c-0.1,0.5-0.1,1-0.1,1.5l0,21.2h5.8l0-18.1l7.9,15c1.1,1.9,2.4,3,4.2,3.1c1.8,0,3.1-1.1,4.2-3.1l7.9-15l0,18.1h5.8L-45.1-61.5z"/>
	</g>
</g>
</svg>
